<svg width="120" height="117" viewBox="0 0 120 117" fill="none" xmlns="http://www.w3.org/2000/svg">
<path d="M75.8333 0V116.025L25.6587 87.8042H0V28.2208H25.6587L75.8333 0ZM21.6612 39.0542H10.8333V76.9708H21.6612V39.0542ZM32.4946 79.2188L65 97.5V18.525L32.4946 36.8008V79.2133V79.2188ZM108.22 30.8317L111.486 35.1542C116.457 41.7385 119.146 49.7648 119.143 58.0152C119.14 66.2657 116.446 74.29 111.47 80.8708L108.203 85.1933L99.5638 78.6608L102.83 74.3383C106.386 69.637 108.311 63.9037 108.313 58.0089C108.315 52.1141 106.394 46.3796 102.841 41.6758L99.5746 37.3588L108.22 30.8317ZM93.0908 42.25L96.3571 46.5725C98.8432 49.8644 100.188 53.8774 100.187 58.0026C100.186 62.1278 98.8394 66.1401 96.3517 69.4308L93.08 73.7533L84.4458 67.2208L87.7121 62.9038C88.7792 61.4936 89.3572 59.7737 89.3581 58.0053C89.3591 56.2368 88.7831 54.5164 87.7175 53.105L84.4512 48.7825L93.0963 42.2554L93.0908 42.25Z" fill="black"/>
</svg>
