<?xml version="1.0" encoding="UTF-8" standalone="no"?>
<!DOCTYPE svg PUBLIC "-//W3C//DTD SVG 1.1//EN" "http://www.w3.org/Graphics/SVG/1.1/DTD/svg11.dtd">
<svg width="100%" height="100%" viewBox="0 0 223 806" version="1.1" xmlns="http://www.w3.org/2000/svg" xmlns:xlink="http://www.w3.org/1999/xlink" xml:space="preserve" xmlns:serif="http://www.serif.com/" style="fill-rule:evenodd;clip-rule:evenodd;stroke-linejoin:round;stroke-miterlimit:2;">
    <g transform="matrix(1,0,0,1,-6573.14,-6120.9)">
        <g transform="matrix(1,0,0,0.737783,147.431,3771.01)">
            <path d="M6544,3885L6539,3810L6532,3805L6512,3810L6511,3813L6470,3781L6453,3786L6455,3845L6448,3848L6448,3863C6448,3863 6446.28,3864 6446,3867L6446,3927L6435.01,3933.35L6435.01,4006L6425.7,4011.37L6425.7,4277L6647.91,4277L6647.91,3861L6544,3885Z" style="fill:rgb(16,71,89);"/>
        </g>
        <g transform="matrix(0.458333,0,0,0.27691,4928.88,5253.35)">
            <path d="M3717.08,4964C3717.08,4957.38 3713.83,4952 3709.83,4952L3676.33,4952C3672.33,4952 3669.08,4957.38 3669.08,4964L3669.08,4988C3669.08,4994.62 3672.33,5000 3676.33,5000L3709.83,5000C3713.83,5000 3717.08,4994.62 3717.08,4988L3717.08,4964Z" style="fill:rgb(34,249,231);"/>
        </g>
        <g transform="matrix(0.458333,0,0,0.27691,5086.01,5344.07)">
            <path d="M3717.08,4964C3717.08,4957.38 3713.83,4952 3709.83,4952L3676.33,4952C3672.33,4952 3669.08,4957.38 3669.08,4964L3669.08,4988C3669.08,4994.62 3672.33,5000 3676.33,5000L3709.83,5000C3713.83,5000 3717.08,4994.62 3717.08,4988L3717.08,4964Z" style="fill:rgb(34,249,231);"/>
        </g>
        <g transform="matrix(0.458333,0,0,0.27691,4928.88,5373.32)">
            <path d="M3717.08,4964C3717.08,4957.38 3713.83,4952 3709.83,4952L3676.33,4952C3672.33,4952 3669.08,4957.38 3669.08,4964L3669.08,4988C3669.08,4994.62 3672.33,5000 3676.33,5000L3709.83,5000C3713.83,5000 3717.08,4994.62 3717.08,4988L3717.08,4964Z" style="fill:rgb(34,249,231);"/>
        </g>
        <g transform="matrix(0.839519,0,0,0.839519,1398.23,3152.03)">
            <path d="M6196.03,4496L6196.03,4303L6220.57,4288.83L6220.57,4117L6242.17,4104.53L6242.17,3993L6255.4,3985.36L6255.4,3806L6271.54,3796.68L6271.54,3750L6278.59,3745.93L6278,3690L6284,3684L6284,3670L6295,3657L6303,3660L6305,3637L6311,3633L6312,3540C6312,3540 6314.07,3532.58 6317,3539L6324,3631L6329,3636L6329,3650L6331.36,3651.36L6333,3651L6348.71,3660.07L6348.71,3675L6354.22,3678.18L6354.22,3732L6361.6,3736.26L6363,3786L6379,3793L6387,3972L6397.43,3978.02L6397.43,4100L6411.46,4108.1L6411.46,4287L6428.81,4297.02L6428.81,4496L6196.03,4496Z" style="fill:rgb(8,63,80);"/>
        </g>
        <g transform="matrix(0.354167,0,0,0.213976,5362.77,5298.41)">
            <path d="M3717.08,4964C3717.08,4957.38 3713.83,4952 3709.83,4952L3676.33,4952C3672.33,4952 3669.08,4957.38 3669.08,4964L3669.08,4988C3669.08,4994.62 3672.33,5000 3676.33,5000L3709.83,5000C3713.83,5000 3717.08,4994.62 3717.08,4988L3717.08,4964Z" style="fill:rgb(34,249,231);"/>
        </g>
        <g transform="matrix(0.354167,0,0,0.213976,5434.36,5339.73)">
            <path d="M3717.08,4964C3717.08,4957.38 3713.83,4952 3709.83,4952L3676.33,4952C3672.33,4952 3669.08,4957.38 3669.08,4964L3669.08,4988C3669.08,4994.62 3672.33,5000 3676.33,5000L3709.83,5000C3713.83,5000 3717.08,4994.62 3717.08,4988L3717.08,4964Z" style="fill:rgb(34,249,231);"/>
        </g>
        <g transform="matrix(0.354167,0,0,0.213976,5345.77,5452.26)">
            <path d="M3717.08,4964C3717.08,4957.38 3713.83,4952 3709.83,4952L3676.33,4952C3672.33,4952 3669.08,4957.38 3669.08,4964L3669.08,4988C3669.08,4994.62 3672.33,5000 3676.33,5000L3709.83,5000C3713.83,5000 3717.08,4994.62 3717.08,4988L3717.08,4964Z" style="fill:rgb(34,249,231);"/>
        </g>
        <g transform="matrix(0.354167,0,0,0.213976,5328.77,5624)">
            <path d="M3717.08,4964C3717.08,4957.38 3713.83,4952 3709.83,4952L3676.33,4952C3672.33,4952 3669.08,4957.38 3669.08,4964L3669.08,4988C3669.08,4994.62 3672.33,5000 3676.33,5000L3709.83,5000C3713.83,5000 3717.08,4994.62 3717.08,4988L3717.08,4964Z" style="fill:rgb(34,249,231);"/>
        </g>
        <g transform="matrix(0.354167,0,0,0.213976,5472.27,5791.49)">
            <path d="M3717.08,4964C3717.08,4957.38 3713.83,4952 3709.83,4952L3676.33,4952C3672.33,4952 3669.08,4957.38 3669.08,4964L3669.08,4988C3669.08,4994.62 3672.33,5000 3676.33,5000L3709.83,5000C3713.83,5000 3717.08,4994.62 3717.08,4988L3717.08,4964Z" style="fill:rgb(34,249,231);"/>
        </g>
    </g>
</svg>
