<?xml version="1.0" encoding="UTF-8" standalone="no"?>
<!DOCTYPE svg PUBLIC "-//W3C//DTD SVG 1.1//EN" "http://www.w3.org/Graphics/SVG/1.1/DTD/svg11.dtd">
<svg width="100%" height="100%" viewBox="0 0 314 571" version="1.1" xmlns="http://www.w3.org/2000/svg" xmlns:xlink="http://www.w3.org/1999/xlink" xml:space="preserve" xmlns:serif="http://www.serif.com/" style="fill-rule:evenodd;clip-rule:evenodd;stroke-linecap:round;stroke-linejoin:round;stroke-miterlimit:1.5;">
    <g transform="matrix(1,0,0,1,-5989.54,-6356.14)">
        <g>
            <g transform="matrix(-0.798236,0,0,0.798236,11377.7,3336.84)">
                <path d="M6501,4497L6501,4020L6486,4019L6478,3915C6478,3915 6471.41,3914.32 6470,3909L6464,3908L6459,3876L6419,3880L6402,3897L6401,3922L6390,3927L6391,3980L6381,3998L6381,4033L6395,4033L6395,4041L6374,4041C6374,4041 6382.81,4050.27 6379,4054L6370,4054L6370,4069L6363,4069L6357,4074L6360,4087L6365,4088L6373,4497L6501,4497Z" style="fill:rgb(16,71,89);"/>
            </g>
            <g transform="matrix(-0.694922,0,0,0.694922,10131.9,3805.73)">
                <path d="M5620.84,3752L5688,3753L5708,3758L5709,3735L5708,3735C5708,3735 5708.45,3728.6 5716,3729C5716,3729 5769.61,3732.42 5762,3758L5798,3773C5798,3773 5803.48,3775.94 5798,3786L5841,3800C5841,3800 5847.94,3788.53 5871,3796L5908,3809C5908,3809 5917.31,3812.76 5914,3877L5898,4332L5960,4335L5960.88,4490.84L5620.84,4490.84L5620.84,3752Z" style="fill:rgb(8,63,80);"/>
            </g>
            <g transform="matrix(-0.263556,0,0,0.263556,6080.48,6420.94)">
                <path d="M0,48.928C0.095,44.624 4.591,31.946 5.37,24.364C5.72,20.975 6.515,18.629 6.814,15.828C8.236,2.57 4.918,-9.458 1.844,-18.923C-3.611,-35.705 -18.706,-41.754 -20.96,-55.992C-21.534,-59.611 -22.923,-69.704 -24.562,-73.113C-26.862,-72.501 -27.451,-71.114 -28.673,-68.783C-34.396,-57.874 -32.2,-44.223 -24.34,-34.96C-21.841,-32.014 -17.114,-29.259 -16.118,-25.525C-19.37,-26.284 -22.49,-27.615 -25.494,-28.43C-29.537,-29.531 -30.972,-29.93 -34.11,-32.098C-35.921,-33.346 -39.466,-36.41 -40.673,-37.815C-41.8,-39.121 -43.465,-41.643 -45.27,-42.358C-51.922,-44.993 -50.159,-29.617 -47.397,-24.949C-45.643,-21.978 -44.178,-21.374 -41.21,-19.623C-38.569,-18.066 -36.441,-16.631 -33.683,-15.636C-21.991,-11.416 -21.232,-14.668 -11.429,-6.419C-1.896,1.602 -3.464,10.974 -3.811,23.625C-4.214,38.267 -12.359,47.711 -8.919,62.451C-7.744,67.484 -6.824,70.7 -4.307,74.815C-0.461,81.106 8.953,90.673 15.678,107.706C18.509,114.869 16.694,118.886 17.803,126.304C18.511,131.025 21.031,130.753 21.27,131.3C21.368,131.533 21.691,131.491 21.837,131.527C30.101,133.557 31.572,125.428 34.584,119.588C39.743,109.582 37.821,92.374 35.307,94.214C35.845,87.75 49.629,43.422 51.966,37.954C57.594,24.798 69.082,15.389 69.112,-0.17C69.127,-7.857 69.169,-10.869 64.476,-14.013C57.007,-9.014 59.431,7.908 53.73,12.084C53.73,5.227 54.787,-2.017 56.118,-8.553C57.274,-14.238 60.239,-20.151 61.858,-25.843C63.864,-32.895 67.202,-44.189 66.802,-51.61C66.506,-57.121 65.158,-59.954 63.798,-63.996C62.226,-68.666 61.464,-70.696 59.351,-74.897C57.516,-78.541 56.846,-82.543 53.73,-84.629C50.143,-81.999 49.74,-77.056 50.439,-72.149C51.96,-61.469 51.571,-50.747 49.133,-40.869C48.26,-37.337 46.138,-29.99 46.054,-26.294L44.518,-26.294C44.518,-32.555 43.221,-36.099 41.784,-41.209C34.883,-65.75 23.042,-68.852 21.491,-74.65L19.19,-74.65C18.717,-68.989 17.555,-68.917 19.728,-62.908C23.688,-51.966 28.586,-44.046 31.47,-31.667C27.076,-34.608 23.924,-37.285 20.128,-41.048L12.283,-54.694C7.985,-54.336 8.424,-50.436 8.383,-46.254C8.302,-38.254 12.13,-34.68 16.644,-29.121L31.45,-13.992C31.559,-13.879 31.715,-13.712 31.826,-13.601C31.937,-13.487 32.092,-13.319 32.202,-13.21C32.608,-12.791 33.403,-12.002 33.724,-11.661C33.834,-11.545 33.996,-11.386 34.1,-11.27C34.208,-11.153 34.363,-10.988 34.465,-10.866C39.318,-5.191 42.035,1.671 42.244,9.756C42.462,18.231 42.244,26.994 41.455,34.349C41.022,38.374 40.209,42.03 39.315,45.26C35.158,60.284 26.097,82.502 26.097,96.516L24.779,93.999C24.022,92.571 23.813,92.182 23.054,91.118C20.956,88.181 3.475,70.93 3.407,65.826C3.344,61.208 8.487,58.372 11.963,56.285C30.388,45.237 26.685,30.715 29.1,19.686C29.682,17.021 30.197,14.872 29.518,11.769C29.079,9.749 28.251,5.696 27.633,4.409C12.887,4.737 15.696,17.287 14.28,27.131C13.326,33.757 13.066,36.253 9.996,40.503C7.45,44.03 3.959,46.832 0,48.928" style="fill:rgb(8,63,80);"/>
            </g>
            <g transform="matrix(0.263556,0,0,0.263556,6260.89,6437.63)">
                <path d="M0,48.928C0.095,44.624 4.591,31.946 5.37,24.364C5.72,20.975 6.515,18.629 6.814,15.828C8.236,2.57 4.918,-9.458 1.844,-18.923C-3.611,-35.705 -18.706,-41.754 -20.96,-55.992C-21.534,-59.611 -22.923,-69.704 -24.562,-73.113C-26.862,-72.501 -27.451,-71.114 -28.673,-68.783C-34.396,-57.874 -32.2,-44.223 -24.34,-34.96C-21.841,-32.014 -17.114,-29.259 -16.118,-25.525C-19.37,-26.284 -22.49,-27.615 -25.494,-28.43C-29.537,-29.531 -30.972,-29.93 -34.11,-32.098C-35.921,-33.346 -39.466,-36.41 -40.673,-37.815C-41.8,-39.121 -43.465,-41.643 -45.27,-42.358C-51.922,-44.993 -50.159,-29.617 -47.397,-24.949C-45.643,-21.978 -44.178,-21.374 -41.21,-19.623C-38.569,-18.066 -36.441,-16.631 -33.683,-15.636C-21.991,-11.416 -21.232,-14.668 -11.429,-6.419C-1.896,1.602 -3.464,10.974 -3.811,23.625C-4.214,38.267 -12.359,47.711 -8.919,62.451C-7.744,67.484 -6.824,70.7 -4.307,74.815C-0.461,81.106 -5.499,79.941 -15.111,81.405C-19.54,82.08 -24.639,82.903 -28.288,80.287C-34.194,76.053 -39.182,67.101 -38.871,59.746C-38.405,48.82 -22.371,30.658 -30.189,17.712C-31.614,15.35 -32.57,15.156 -36.076,15.156C-38.022,18.061 -38.939,21.856 -40.246,25.568L-40.682,26.668C-42.508,18.82 -48.329,10.67 -47.269,2.433C-46.817,-1.069 -47.117,-3.75 -48.357,-6.336C-68.058,-6.336 -57.104,20.527 -56.031,25.132C-59.193,23.617 -62.951,23.273 -66.476,21.761C-70.389,20.082 -71.581,17.849 -75.222,15.924C-83.087,20.084 -80.021,28.5 -73.061,32.182C-64.438,36.746 -55.715,31.934 -51.222,59.471C-49.092,72.541 -39.062,93.102 -22.296,93.482C-17.365,93.596 -12.935,93.482 -9.095,92.794C9.483,89.469 8.953,90.673 15.678,107.706C18.509,114.869 16.694,118.886 17.803,126.304C18.511,131.025 21.031,130.753 21.27,131.3C21.368,131.533 21.691,131.491 21.837,131.527C30.101,133.557 31.572,125.428 34.584,119.588C39.743,109.582 49.985,95.578 57.764,87.502L60.337,84.701C60.487,84.537 60.932,84.077 61.081,83.909C65.227,79.277 67.77,78.201 73.66,75.766C79.5,73.354 88.517,72.146 96.73,71.97C120.944,71.453 128.424,46.136 110.298,53.3C106.473,54.812 104.901,56.581 100.382,57.2C97.19,57.64 90.299,58.139 87.504,58.139C90.426,53.773 95.758,49.397 99.133,45.206L111.087,31.832C115.074,26.932 117.13,21.007 118.663,14.845L123.305,-1.351C123.356,-1.506 123.457,-1.718 123.502,-1.867C125.43,-8.675 110.134,-8.098 105.349,4.603C103.24,10.21 102.414,17.52 100.026,23.073C98.951,25.568 98.113,26.259 97.48,28.973L95.947,28.973C95.161,25.598 91.858,19.72 90.322,16.172C88.126,11.095 89.53,5.774 85.2,2.873C80.959,5.714 78.323,16.467 79.722,22.926C81.452,30.926 85.018,35.108 88.272,41.253C83.233,44.627 80.122,50.508 75.128,54.208C67.525,59.842 59.462,64.86 53.197,72.191L40.994,86.086C38.891,88.865 37.821,92.374 35.307,94.214C35.845,87.75 49.629,43.422 51.966,37.954C57.594,24.798 69.082,15.389 69.112,-0.17C69.127,-7.857 69.169,-10.869 64.476,-14.013C57.007,-9.014 59.431,7.908 53.73,12.084C53.73,5.227 54.787,-2.017 56.118,-8.553C57.274,-14.238 60.239,-20.151 61.858,-25.843C63.864,-32.895 67.202,-44.189 66.802,-51.61C66.506,-57.121 65.158,-59.954 63.798,-63.996C62.226,-68.666 61.464,-70.696 59.351,-74.897C57.516,-78.541 56.846,-82.543 53.73,-84.629C50.143,-81.999 49.74,-77.056 50.439,-72.149C51.96,-61.469 51.571,-50.747 49.133,-40.869C48.26,-37.337 46.138,-29.99 46.054,-26.294L44.518,-26.294C44.518,-32.555 43.221,-36.099 41.784,-41.209C34.883,-65.75 23.042,-68.852 21.491,-74.65L19.19,-74.65C18.717,-68.989 17.555,-68.917 19.728,-62.908C23.688,-51.966 28.586,-44.046 31.47,-31.667C27.076,-34.608 23.924,-37.285 20.128,-41.048L12.283,-54.694C7.985,-54.336 8.424,-50.436 8.383,-46.254C8.302,-38.254 12.13,-34.68 16.644,-29.121L31.45,-13.992C31.559,-13.879 31.715,-13.712 31.826,-13.601C31.937,-13.487 32.092,-13.319 32.202,-13.21C32.608,-12.791 33.403,-12.002 33.724,-11.661C33.834,-11.545 33.996,-11.386 34.1,-11.27C34.208,-11.153 34.363,-10.988 34.465,-10.866C39.318,-5.191 42.035,1.671 42.244,9.756C42.462,18.231 42.244,26.994 41.455,34.349C41.022,38.374 40.209,42.03 39.315,45.26C35.158,60.284 26.097,82.502 26.097,96.516L24.779,93.999C24.022,92.571 23.813,92.182 23.054,91.118C20.956,88.181 3.475,70.93 3.407,65.826C3.344,61.208 8.487,58.372 11.963,56.285C30.388,45.237 26.685,30.715 29.1,19.686C29.682,17.021 30.197,14.872 29.518,11.769C29.079,9.749 28.251,5.696 27.633,4.409C12.887,4.737 15.696,17.287 14.28,27.131C13.326,33.757 13.066,36.253 9.996,40.503C7.45,44.03 3.959,46.832 0,48.928" style="fill:rgb(16,71,89);"/>
            </g>
            <g transform="matrix(0.29723,0,0,0.29723,6195.89,6418.37)">
                <path d="M0,-206.464C0,-203.804 4.223,-197.617 5.371,-184.202C5.807,-179.091 6.855,-181.581 9.211,-178.063C7.743,-176.518 8.419,-176.595 5.371,-176.526C5.158,-166.918 -1.674,-161.231 8.443,-158.873C7.731,-156.216 7.992,-156.76 5.293,-155.884C3.789,-155.394 1.781,-155.077 0,-155.035C-0.356,-150.765 -5.102,-145.145 -6.91,-137.381C-5.177,-136.978 -4.25,-136.569 -2.842,-136.075C0.161,-135.026 -0.863,-135.98 0.764,-133.544C-2.774,-132.719 -3.984,-132.776 -8.443,-132.776C-10.233,-129.049 -15.239,-113.248 -15.353,-108.216C-13.476,-107.316 -7.875,-106.494 -5.374,-105.911C-7.047,-103.628 -6.498,-104.57 -10.362,-103.992C-13.102,-103.583 -14.731,-103.61 -17.654,-103.61L-21.957,-89.492C-23.174,-84.599 -24.564,-79.351 -24.564,-73.676C-18.756,-73.676 -15.401,-75.427 -14.369,-74.396C-12.191,-72.215 -19.026,-69.835 -21.495,-69.835C-24.967,-69.835 -25.332,-72.982 -25.332,-64.464C-25.332,-59.994 -23.936,-53.942 -22.677,-50.23C-21.384,-46.419 -19.549,-41.132 -19.19,-36.831L-13.817,-36.831C-14.465,-29.038 -23.112,-40.242 -9.05,-16.267C-7.343,-13.359 -5.392,-5.885 -0.228,-0.529C0.864,0.601 2.657,2.376 3.933,2.998C5.358,3.692 4.731,3.858 6.324,3.285C13.111,0.843 2.301,-8.275 2.301,-14.572C2.301,-18.572 4.157,-28.556 3.491,-30.284C2.737,-32.232 -1.062,-34.256 -2.652,-37.364C-3.04,-38.128 -4.128,-40.58 -2.421,-39.907C-0.484,-39.145 -0.278,-37.519 5.371,-34.528C6.36,-38.768 7.453,-43.789 8.984,-47.803L13.048,-60.624C10.409,-64.567 7.322,-66.234 4.605,-71.371C7.053,-70.801 10.95,-67.919 14.581,-65.998C17.375,-71.819 20.039,-89.008 22.259,-93.631C19.375,-95.158 15.968,-96.428 13.41,-98.598C11.247,-100.436 11.787,-98.777 11.512,-102.074C25.119,-94.874 23.702,-98.137 25.556,-109.522C25.795,-110.992 26.172,-114.067 26.542,-116.243C27.483,-121.754 27.857,-122.17 24.758,-124.53C24.02,-125.095 22.92,-125.698 21.951,-126.33L16.118,-130.475C27.731,-130.475 28.239,-124.043 29.811,-135.971L30.702,-148.128C30.702,-152.095 29.721,-151.544 26.623,-152.495C22.866,-153.642 23.129,-154.773 19.955,-155.035L19.955,-157.34C29.773,-157.34 30.627,-155.221 28.972,-164.025C28.306,-167.57 26.755,-175.093 25.328,-178.063L16.118,-178.063C17.406,-182.884 22.259,-181.36 22.259,-184.973C22.259,-188.675 12.648,-199.894 9.776,-203.191C8.093,-205.125 8.697,-205.056 7.373,-206.94C5,-210.322 0,-210.188 0,-206.464" style="fill:rgb(8,63,80);"/>
            </g>
            <g transform="matrix(-0.29723,0,0,0.29723,6215.82,6441.95)">
                <path d="M0,-206.464C0,-203.804 4.223,-197.617 5.371,-184.202C5.807,-179.091 6.855,-181.581 9.211,-178.063C7.743,-176.518 8.419,-176.595 5.371,-176.526C5.158,-166.918 -1.674,-161.231 8.443,-158.873C7.731,-156.216 7.992,-156.76 5.293,-155.884C3.789,-155.394 1.781,-155.077 0,-155.035C-0.356,-150.765 -5.102,-145.145 -6.91,-137.381C-5.177,-136.978 -4.25,-136.569 -2.842,-136.075C0.161,-135.026 -0.863,-135.98 0.764,-133.544C-2.774,-132.719 -3.984,-132.776 -8.443,-132.776C-10.233,-129.049 -15.239,-113.248 -15.353,-108.216C-13.476,-107.316 -7.875,-106.494 -5.374,-105.911C-7.047,-103.628 -6.498,-104.57 -10.362,-103.992C-13.102,-103.583 -14.731,-103.61 -17.654,-103.61L-21.957,-89.492C-23.174,-84.599 -24.564,-79.351 -24.564,-73.676C-18.756,-73.676 -15.401,-75.427 -14.369,-74.396C-12.191,-72.215 -19.026,-69.835 -21.495,-69.835C-24.967,-69.835 -25.332,-72.982 -25.332,-64.464C-25.332,-59.994 -23.936,-53.942 -22.677,-50.23C-21.384,-46.419 -19.549,-41.132 -19.19,-36.831L-13.817,-36.831C-14.465,-29.038 -23.112,-40.242 -9.05,-16.267C-7.343,-13.359 -5.392,-5.885 -0.228,-0.529C0.864,0.601 2.657,2.376 3.933,2.998C5.358,3.692 4.731,3.858 6.324,3.285C13.111,0.843 2.301,-8.275 2.301,-14.572C2.301,-18.572 4.157,-28.556 3.491,-30.284C2.737,-32.232 -1.062,-34.256 -2.652,-37.364C-3.04,-38.128 -4.128,-40.58 -2.421,-39.907C-0.484,-39.145 -0.278,-37.519 5.371,-34.528C6.36,-38.768 7.453,-43.789 8.984,-47.803L13.048,-60.624C10.409,-64.567 7.322,-66.234 4.605,-71.371C7.053,-70.801 10.95,-67.919 14.581,-65.998C17.375,-71.819 20.039,-89.008 22.259,-93.631C19.375,-95.158 15.968,-96.428 13.41,-98.598C11.247,-100.436 11.787,-98.777 11.512,-102.074C25.119,-94.874 23.702,-98.137 25.556,-109.522C25.795,-110.992 26.172,-114.067 26.542,-116.243C27.483,-121.754 27.857,-122.17 24.758,-124.53C24.02,-125.095 22.92,-125.698 21.951,-126.33L16.118,-130.475C27.731,-130.475 28.239,-124.043 29.811,-135.971L30.702,-148.128C30.702,-152.095 29.721,-151.544 26.623,-152.495C22.866,-153.642 23.129,-154.773 19.955,-155.035L19.955,-157.34C29.773,-157.34 30.627,-155.221 28.972,-164.025C28.306,-167.57 26.755,-175.093 25.328,-178.063L16.118,-178.063C17.406,-182.884 22.259,-181.36 22.259,-184.973C22.259,-188.675 12.648,-199.894 9.776,-203.191C8.093,-205.125 8.697,-205.056 7.373,-206.94C5,-210.322 0,-210.188 0,-206.464" style="fill:rgb(8,63,80);"/>
            </g>
            <g transform="matrix(0.368574,0,0,0.368574,6015.63,6783.79)">
                <path d="M0,-7.307C0.225,-10.011 1.02,-10.878 1.339,-12.875C1.71,-15.185 1.238,-17.169 1.847,-19.277C3.727,-25.77 11.581,-29.243 15.941,-33.583C19.304,-36.927 26.214,-47.874 22.809,-53.114C20.449,-56.747 15.747,-55.887 13.682,-52.728C12.113,-50.329 11.186,-46.082 9.492,-43.101C7.863,-40.242 4.297,-37.937 1.533,-36.476C-0.424,-44.88 -4.393,-50.684 -5.374,-54.895C-1.596,-57.427 2.22,-59.877 5.18,-63.532C8.948,-68.186 13.151,-84.01 3.538,-81.293C0.822,-80.526 -0.096,-78.364 -1.001,-75.852C-3.532,-68.828 -2.626,-67.591 -9.211,-64.106C-10.066,-65.887 -10.801,-67.522 -10.706,-70.209C-10.382,-79.223 -11.91,-79.467 -4.414,-86.942C3.479,-94.812 4.788,-98.727 2.302,-109.393C-3.152,-109.393 -3.718,-107.471 -5.11,-102.988C-5.705,-101.069 -5.986,-99.321 -6.811,-97.782C-7.373,-96.73 -9.038,-94.734 -9.979,-94.043C-9.979,-102.528 -13.285,-115.535 -23.028,-115.535C-23.028,-109.035 -20.493,-104.241 -19.19,-98.648C-20.735,-99.465 -22.304,-99.991 -23.915,-100.83C-29.68,-103.834 -32.477,-108.057 -39.914,-106.324C-40.544,-103.615 -40.681,-103.801 -40.681,-100.182L-24.779,-90.756C-21.312,-88.983 -20.003,-86.718 -19.884,-82.582C-19.788,-79.166 -19.423,-73.861 -22.259,-71.784C-22.967,-74.438 -25.574,-77.737 -27.421,-79.671C-30.651,-83.054 -30.663,-84.064 -36.843,-84.064C-42.618,-75.439 -38.093,-77.071 -31.721,-66.159C-30.075,-63.344 -29.746,-62.683 -27.221,-60.684L-21.084,-56.84C-19.106,-55.604 -18.541,-52.973 -17.403,-50.544C-15.326,-46.118 -11.945,-41.674 -11.515,-36.476C-14.052,-37.152 -15.209,-39.022 -17.645,-40.322C-20.03,-41.599 -21.635,-42.692 -23.795,-44.15C-31.396,-49.288 -31.754,-49.862 -36.843,-46.452C-36.843,-39.701 -37.782,-40.675 -33.993,-37.023C-28.852,-32.068 -17.403,-23.592 -9.979,-23.428C-9.979,-16.605 -10.08,-12.66 -12.283,-8.075C-13.526,-8.732 -14.42,-9.032 -15.792,-9.936C-17.217,-10.878 -17.815,-11.491 -19.345,-12.525C-22.268,-14.494 -23.344,-14.973 -25.098,-18.287C-26.38,-20.711 -27.244,-24.255 -29.686,-25.298C-39.148,-29.33 -39.564,-14.339 -31.234,-6.01C-28.672,-3.448 -23.798,-0.776 -20.478,0.888C-18.703,1.778 -17.686,1.919 -16.121,2.672C-19.229,9.151 -18.422,14.196 -18.422,23.395C-21.081,22.684 -24.098,20.006 -26.028,17.95C-26.037,17.938 -27.035,16.784 -27.095,16.716C-30.63,12.69 -31.401,11.97 -37.612,13.417C-38.565,17.514 -39.133,18.954 -37.169,22.953L-32.965,27.959C-32.424,28.404 -31.865,28.873 -31.267,29.331C-21.061,37.164 -23.536,34.42 -16.121,37.979C-16.121,44.101 -17.594,43.94 -16.121,50.26C-25.394,49.49 -26.025,44.558 -32.714,40.745C-40.487,36.316 -44.563,43.063 -36.273,51.223C-33.487,53.963 -31.246,56.767 -27.34,58.41C-22.319,60.526 -17.31,58.697 -17.217,63.99C-17.149,67.827 -18.422,73.201 -18.422,78.662C-31.904,75.52 -34.007,61.874 -41.45,57.935C-43.162,58.84 -43.76,59.217 -45.286,60.239C-45.286,75.358 -32.062,83.407 -20.726,89.405C-23.35,94.37 -27.367,101.611 -26.097,107.059C-21.084,108.228 -18.604,106.387 -16.647,101.928C-14.949,98.055 -12.648,94.576 -12.283,90.174C9.468,90.174 19.507,68.231 15.35,64.077C12.812,61.539 8.847,65.78 7.2,67.439C2.421,72.25 -2.068,79.25 -9.979,79.426C-9.246,76.285 -9.211,75.822 -9.211,71.752C-6.102,69.671 -3.15,67.893 -0.173,65.439C1.402,64.139 2.564,63.416 4.043,61.979C12.478,53.781 17.654,50.672 17.654,37.212C15.107,35.505 13.724,32.819 10.401,36.841C6.073,42.074 6.374,50.547 -6.141,57.167C-6.141,53 -6.568,48.423 -5.848,44.412C-3.541,31.581 5.488,34.37 13.019,21.829C14.454,19.438 17.362,16.378 15.684,12.376C12.621,5.06 5.962,12.896 4.077,15.96C1.605,19.977 -2.206,23.828 -6.141,26.465C-7.071,22.471 -7.537,15.777 -6.873,11.151C-6.159,6.196 -1.225,5.197 2.813,3.184C9.611,-0.209 15.79,-3.921 20.131,-10.2C23.509,-15.08 22.806,-16.868 19.955,-21.123C10.855,-20.92 10.359,-9.721 0,-7.307" style="fill:rgb(8,63,80);"/>
            </g>
            <g transform="matrix(1,0,0,0.604167,2489.61,3483.9)">
                <path d="M3717.08,4964C3717.08,4957.38 3713.83,4952 3709.83,4952L3676.33,4952C3672.33,4952 3669.08,4957.38 3669.08,4964L3669.08,4988C3669.08,4994.62 3672.33,5000 3676.33,5000L3709.83,5000C3713.83,5000 3717.08,4994.62 3717.08,4988L3717.08,4964Z" style="fill:rgb(34,249,231);stroke:rgb(6,15,12);stroke-width:1.21px;"/>
            </g>
        </g>
    </g>
</svg>
